<svg id="Layer_1" data-name="Layer 1" xmlns="http://www.w3.org/2000/svg" viewBox="0 0 132.79 220.44"><defs><style>.cls-1{fill:#44c8f5;}.cls-2{fill:#636467;}</style></defs><title>Points_RGB_vert</title><path class="cls-1" d="M63.4,31.7A31.7,31.7,0,1,1,31.7,0,31.71,31.71,0,0,1,63.4,31.7"/><path class="cls-1" d="M132.79,31.7A31.7,31.7,0,1,1,101.09,0a31.7,31.7,0,0,1,31.7,31.7"/><path class="cls-1" d="M63.4,101.09a31.7,31.7,0,1,1-31.7-31.7,31.7,31.7,0,0,1,31.7,31.7"/><path class="cls-1" d="M132.79,101.09a31.7,31.7,0,1,1-31.7-31.7,31.7,31.7,0,0,1,31.7,31.7"/><path class="cls-1" d="M31.64,138.79C14.07,138.79,0,152.07,0,170.37s14.07,31.81,31.64,31.81S63.4,188.79,63.4,170.37s-14.2-31.58-31.76-31.58"/><path class="cls-2" d="M101,138.79c-17.53,0-31.59,13.23-31.63,31.49h0v50.16H80.72V195.07A31.83,31.83,0,0,0,101,202.18c17.57,0,31.76-13.39,31.76-31.81S118.6,138.79,101,138.79Zm0,51.6a19.91,19.91,0,1,1,20-20A19.56,19.56,0,0,1,101.05,190.39Z"/></svg>